<svg width="89" height="88" xmlns="http://www.w3.org/2000/svg" xmlns:xlink="http://www.w3.org/1999/xlink" xml:space="preserve" overflow="hidden"><defs><clipPath id="clip0"><rect x="0" y="0" width="89" height="88"/></clipPath><clipPath id="clip1"><rect x="0" y="0" width="89" height="87"/></clipPath><clipPath id="clip2"><rect x="0" y="0" width="90" height="87"/></clipPath><clipPath id="clip3"><rect x="0" y="0" width="599" height="87"/></clipPath></defs><g clip-path="url(#clip0)"><g clip-path="url(#clip1)"><g clip-path="url(#clip2)"><g clip-path="url(#clip3)"><path d="M139.314 35.5599 122.406 35.5599C120.562 35.5599 119.536 34.6377 119.536 32.7935L119.536 25.9282C119.536 24.084 120.562 23.058 122.406 23.058L141.467 23.058C154.379 23.058 161.86 30.5389 161.86 43.4511L161.86 83.6216C161.86 85.5696 160.834 86.4918 158.99 86.4918L150.792 86.4918C148.948 86.4918 148.026 85.5696 148.026 83.6216L148.026 82.5956C148.026 81.6735 146.898 80.7514 145.875 81.5697L140.547 85.8738C139.932 86.3855 139.319 86.4893 138.804 86.4893L129.89 86.4893C120.359 86.4893 114.312 80.4424 114.312 70.9121L114.312 63.6365C114.312 54.1062 120.359 48.0593 129.89 48.0593L146.49 48.0593C147.618 48.0593 148.028 47.6489 148.028 46.5216L148.028 44.1656C148.028 38.4276 145.057 35.5575 139.319 35.5575ZM128.144 69.6834C128.144 72.3484 129.783 73.9875 132.448 73.9875L146.488 73.9875C147.615 73.9875 148.026 73.5771 148.026 72.4498L148.026 61.0753C148.026 59.948 147.615 59.5376 146.488 59.5376L132.448 59.5376C129.783 59.5376 128.144 61.1767 128.144 63.8417L128.144 69.6834Z" fill="#CCCCCC" fill-rule="nonzero" fill-opacity="1" transform="matrix(1 0 0 1.00321 0.0844008 0)"/><path d="M189.529 35.5599C188.401 35.5599 187.991 35.9702 187.991 37.0975L187.991 83.6216C187.991 85.5696 187.069 86.4918 185.225 86.4918L177.027 86.4918C175.183 86.4918 174.157 85.5696 174.157 83.6216L174.157 25.9258C174.157 23.9777 175.183 23.0556 177.027 23.0556L185.225 23.0556C187.069 23.0556 187.991 23.9777 187.991 25.9258L187.991 26.9517C187.991 27.8739 189.118 28.796 190.142 27.9777L195.469 23.6736C196.085 23.1618 196.698 23.058 197.212 23.058L205.615 23.058C207.46 23.058 208.485 24.084 208.485 25.9282L208.485 32.7935C208.485 34.6377 207.46 35.5599 205.615 35.5599L189.526 35.5599Z" fill="#CCCCCC" fill-rule="nonzero" fill-opacity="1" transform="matrix(1 0 0 1.00321 0.0844008 0)"/><path d="M236.154 23.058 248.451 23.058C250.295 23.058 251.321 24.084 251.321 25.9282L251.321 32.6921C251.321 34.5364 250.295 35.5623 248.451 35.5623L236.154 35.5623C235.027 35.5623 234.616 35.9727 234.616 37.1L234.616 65.3842C234.616 71.1221 237.588 73.9923 243.326 73.9923L248.451 73.9923C250.295 73.9923 251.321 74.9145 251.321 76.7587L251.321 83.624C251.321 85.4682 250.295 86.4942 248.451 86.4942L241.175 86.4942C228.263 86.4942 220.782 79.0133 220.782 66.1011L220.782 37.1C220.782 35.9727 220.372 35.5623 219.244 35.5623L214.429 35.5623C212.584 35.5623 211.558 34.5364 211.558 32.6921L211.558 25.9282C211.558 24.084 212.584 23.058 214.429 23.058L219.244 23.058C220.372 23.058 220.782 22.6477 220.782 21.5203L220.782 12.5018C220.782 11.3745 221.294 10.351 222.421 10.042L230.723 7.48082C232.567 6.86527 234.616 7.7874 234.616 9.94064L234.616 21.5203C234.616 22.6477 235.027 23.058 236.154 23.058Z" fill="#CCCCCC" fill-rule="nonzero" fill-opacity="1" transform="matrix(1 0 0 1.00321 0.0844008 0)"/><path d="M291.185 66.0963 291.185 43.4487C291.185 30.5364 298.666 23.0556 311.578 23.0556L322.851 23.0556C335.763 23.0556 343.244 30.5364 343.244 43.4487L343.244 66.0963C343.244 79.0085 335.763 86.4893 322.851 86.4893L311.578 86.4893C298.666 86.4893 291.185 79.0085 291.185 66.0963ZM329.407 65.3794 329.407 44.168C329.407 38.43 326.436 35.5599 320.698 35.5599L313.729 35.5599C307.991 35.5599 305.019 38.43 305.019 44.168L305.019 65.3794C305.019 71.1173 307.991 73.9875 313.729 73.9875L320.698 73.9875C326.436 73.9875 329.407 71.1173 329.407 65.3794Z" fill="#CCCCCC" fill-rule="nonzero" fill-opacity="1" transform="matrix(1 0 0 1.00321 0.0844008 0)"/><path d="M360.663 37.0951C360.663 35.9678 360.253 35.5575 359.125 35.5575L354.31 35.5575C352.465 35.5575 351.439 34.5315 351.439 32.6873L351.439 25.9234C351.439 24.0791 352.465 23.0532 354.31 23.0532L359.125 23.0532C360.253 23.0532 360.663 22.6428 360.663 21.5155L360.663 20.3882C360.663 7.476 368.144-0.0048279 381.056-0.0048279L388.332-0.0048279C390.176-0.0048279 391.202 1.0211 391.202 2.86536L391.202 9.73062C391.202 11.5749 390.176 12.497 388.332 12.497L383.207 12.497C377.469 12.497 374.497 15.3672 374.497 21.1051L374.497 21.5155C374.497 22.6428 374.908 23.0532 376.035 23.0532L388.332 23.0532C390.176 23.0532 391.202 24.0791 391.202 25.9234L391.202 32.6873C391.202 34.5315 390.176 35.5575 388.332 35.5575L376.035 35.5575C374.908 35.5575 374.497 35.9678 374.497 37.0951L374.497 83.6192C374.497 85.4634 373.575 86.4893 371.731 86.4893L363.533 86.4893C361.689 86.4893 360.663 85.4634 360.663 83.6192L360.663 37.0951Z" fill="#CCCCCC" fill-rule="nonzero" fill-opacity="1" transform="matrix(1 0 0 1.00321 0.0844008 0)"/><path d="M444.589 23.058 456.067 23.058C456.579 23.058 457.194 23.1594 457.81 23.6736L463.138 27.9777C464.164 28.7984 465.288 27.8763 465.288 26.9517L465.288 2.87018C465.288 0.922128 466.211 0 468.055 0L476.253 0C478.097 0 479.123 0.922128 479.123 2.87018L479.123 83.6192C479.123 85.5672 478.097 86.4893 476.253 86.4893L468.055 86.4893C466.211 86.4893 465.288 85.5672 465.288 83.6192L465.288 82.5932C465.288 81.6711 464.161 80.749 463.138 81.5673L457.81 85.8714C457.194 86.3831 456.581 86.4869 456.067 86.4869L444.589 86.4869C435.059 86.4869 429.012 80.44 429.012 70.9097L429.012 38.6328C429.012 29.1026 435.059 23.0556 444.589 23.0556ZM442.846 69.6834C442.846 72.3484 444.485 73.9875 447.15 73.9875L463.751 73.9875C464.878 73.9875 465.288 73.5771 465.288 72.4498L465.288 37.0951C465.288 35.9678 464.878 35.5575 463.751 35.5575L447.15 35.5575C444.485 35.5575 442.846 37.1965 442.846 39.8615L442.846 69.681Z" fill="#CCCCCC" fill-rule="nonzero" fill-opacity="1" transform="matrix(1 0 0 1.00321 0.0844008 0)"/><path d="M539.993 43.4487 539.993 52.4672C539.993 58.2051 536.51 61.6909 530.769 61.6909L506.789 61.6909C505.662 61.6909 505.251 62.1012 505.251 63.2285L505.251 65.3818C505.251 71.1197 508.223 73.9899 513.961 73.9899L530.871 73.9899C532.715 73.9899 533.741 74.912 533.741 76.7563L533.741 83.6216C533.741 85.4658 532.715 86.4918 530.871 86.4918L511.81 86.4918C498.898 86.4918 491.417 79.0109 491.417 66.0987L491.417 43.4511C491.417 30.5389 498.898 23.058 511.81 23.058L519.597 23.058C532.51 23.058 539.99 30.5389 539.99 43.4511ZM517.449 34.5339 513.966 34.5339C508.228 34.5339 505.256 37.4041 505.256 43.1421L505.256 48.6748C505.256 49.8022 505.667 50.2125 506.794 50.2125L523.293 50.2125C525.137 50.2125 526.163 49.1866 526.163 47.3423L526.163 43.1397C526.163 37.4017 523.192 34.5315 517.454 34.5315Z" fill="#CCCCCC" fill-rule="nonzero" fill-opacity="1" transform="matrix(1 0 0 1.00321 0.0844008 0)"/><path d="M562.233 85.1568 543.684 25.7206C543.273 24.3881 544.299 23.0556 545.528 23.0556L555.365 23.0556C556.799 23.0556 557.825 23.8764 558.131 25.1051L571.145 71.9356 584.158 25.1051C584.465 23.8764 585.491 23.0556 586.925 23.0556L596.25 23.0556C597.479 23.0556 598.505 24.3881 598.094 25.7206L579.545 85.1568C579.239 86.079 578.828 86.4893 578.008 86.4893L563.763 86.4893C562.942 86.4893 562.534 86.079 562.225 85.1568Z" fill="#CCCCCC" fill-rule="nonzero" fill-opacity="1" transform="matrix(1 0 0 1.00321 0.0844008 0)"/><path d="M21.2645 35.7216 0.176218 60.5708C-0.0579347 60.846-0.0579347 61.2515 0.176218 61.5267L21.2645 86.3759C21.4045 86.5424 21.6097 86.6366 21.8269 86.6366L45.9495 86.6366C46.5795 86.6366 46.9199 85.9003 46.5119 85.42L26.2348 61.5267C26.0006 61.2515 26.0006 60.846 26.2348 60.5708L46.5119 36.6775C46.9199 36.1971 46.5771 35.4609 45.9495 35.4609L21.8293 35.4609C21.6121 35.4609 21.4069 35.5575 21.2669 35.7216Z" fill="#52B788" fill-rule="nonzero" fill-opacity="1" transform="matrix(1 0 0 1.00321 0.0844008 0)"/><path d="M75.2065 20.731 75.2065 85.84C75.2065 86.3107 74.8227 86.6897 74.352 86.6873L52.7013 86.5207C52.2354 86.5183 51.8613 86.1393 51.8613 85.6734L51.8613 11.2273C51.8613 10.6165 52.4889 10.2062 53.0489 10.4524L74.6996 19.9561C75.0086 20.0913 75.2065 20.3954 75.2065 20.731Z" fill="#52B788" fill-rule="nonzero" fill-opacity="1" transform="matrix(1 0 0 1.00321 0.0844008 0)"/></g></g></g></g></svg>